<?xml version="1.0" encoding="UTF-8" standalone="no"?>
<svg
   width="512"
   height="512"
   version="1.1"
   id="svg6"
   sodipodi:docname="app-logo.svg"
   inkscape:version="1.3.2 (091e20e, 2023-11-25, custom)"
   xmlns:inkscape="http://www.inkscape.org/namespaces/inkscape"
   xmlns:sodipodi="http://sodipodi.sourceforge.net/DTD/sodipodi-0.dtd"
   xmlns="http://www.w3.org/2000/svg"
   xmlns:svg="http://www.w3.org/2000/svg">
  <defs
     id="defs6" />
  <sodipodi:namedview
     id="namedview6"
     pagecolor="#ffffff"
     bordercolor="#000000"
     borderopacity="0.25"
     inkscape:showpageshadow="2"
     inkscape:pageopacity="0.0"
     inkscape:pagecheckerboard="0"
     inkscape:deskcolor="#d1d1d1"
     inkscape:zoom="1.1338568"
     inkscape:cx="267.67049"
     inkscape:cy="311.76776"
     inkscape:window-width="1920"
     inkscape:window-height="1017"
     inkscape:window-x="-8"
     inkscape:window-y="-8"
     inkscape:window-maximized="1"
     inkscape:current-layer="svg6" />
  <g
     id="g6"
     transform="matrix(1.7939464,0,0,1.7939464,-203.21424,-154.46527)"
     style="fill:#80cbc4;fill-opacity:1">
    <path
       fill="#274c77"
       d="m 257.075,210.116 -47.007,-0.007 c -10.622,-0.038 -15.304,-5.794 -19.085,-15.183 l -18.402,-46.023 c -1.277,-3.162 -2.823,-6.347 -3.879,-9.586 -2.471,-7.578 0.024,-16.409 6.609,-21.072 2.305,-1.632 5.008,-2.674 7.609,-3.733 l 10.719,-4.15 c 2.944,-1.131 5.834,-2.442 8.834,-3.414 l 11.708,81.617 15.93,-0.005 -12.158,-88.004 c 1.297,-0.406 2.552,-1.0044 3.806,-1.5282 l 21.213,-8.7773 c 4.145,-1.703 8.154,-3.8219 12.694,-4.1272 5.556,-0.2954 10.904,2.7988 15.855,4.8845 l 22.354,9.7052 -12.248,87.825 16.088,0.019 c 0.328,-0.714 0.289,-2.108 0.4,-2.92 l 9.942,-69.67 c 0.391,-3.033 0.7,-6.144 1.43,-9.115 2.511,0.402 4.796,1.406 7.125,2.378 l 7.106,2.971 c 3.625,1.495 7.464,2.815 10.928,4.646 7.929,4.192 11.477,14.002 8.729,22.378 -1.293,3.939 -3.142,7.791 -4.725,11.624 l -17.447,43.836 c -3.161,7.953 -6.729,13.657 -15.855,15.261 -1.704,0.299 -3.659,0.156 -5.39,0.158 z m -9.18,-80.544 0.097,58.005 c 0,0.294 -0.058,0.72 0.076,0.977 l 15.694,-0.012 0.121,-58.921 z"
       id="path2"
       style="fill:#80cbc4;fill-opacity:1" />
    <path
       fill="#274c77"
       d="m 266.169,302.584 -20.437,-0.087 0.03,-80.235 c 1.845,0.003 19.95,0.043 20.407,0.26 z"
       id="path3"
       style="fill:#80cbc4;fill-opacity:1" />
    <path
       fill="#274c77"
       d="m 351.42,243.697 0.04,58.522 -33.453,0.016 c -1.927,-0.003 -3.829,0.078 -5.734,-0.259 -0.485,-1.278 -1.25,-2.474 -1.91,-3.67 L 273.419,228.89 c -1.177,-2.217 -2.251,-4.501 -3.601,-6.619 l 23.308,0.22 c 0.287,0.182 0.35,0.48 0.496,0.771 l 28.092,52.603 c 0.653,1.222 2.156,4.497 2.792,5.376 l 6.789,0.039 -0.01,-58.422 20.07,-0.046 z"
       id="path4"
       style="fill:#80cbc4;fill-opacity:1" />
    <path
       fill="#274c77"
       d="m 160.478,252.379 0.067,-29.522 20.195,0.042 -0.06,56.293 c -0.001,0.665 -0.062,1.38 0.036,2.035 l 6.3,0.299 c 0.713,-2.04 1.867,-3.871 2.9,-5.76 l 26.302,-48.698 c 0.79,-1.427 1.78,-2.86 2.406,-4.359 l 0.048,-0.12 c 1.418,-0.406 3.445,-0.172 4.94,-0.174 l 9.131,-0.014 8.77,0.024 c -0.5,0.606 -2.346,5.075 -2.92,6.242 l -14.252,26.925 -24.004,44.295 c -0.412,0.753 -0.989,2.293 -1.982,2.336 l -37.813,0.045 c -0.221,-1.425 -0.057,-3.135 -0.06,-4.586 z"
       id="path5"
       style="fill:#80cbc4;fill-opacity:1" />
  </g>
  <text
     xml:space="preserve"
     style="font-style:normal;font-variant:normal;font-weight:bold;font-stretch:normal;font-size:48px;font-family:Hind;-inkscape-font-specification:'Hind, Bold';font-variant-ligatures:normal;font-variant-caps:normal;font-variant-numeric:normal;font-variant-east-asian:normal;text-align:center;letter-spacing:0.5px;word-spacing:0px;text-anchor:middle;white-space:pre;inline-size:510.667;display:inline;fill:#80cbc4;stroke-width:4.364;stroke-linecap:round"
     x="237.49895"
     y="458.99146"
     id="text1"
     transform="matrix(0.9901167,0,0,0.9901167,21.442338,-11.177137)"><tspan
       x="237.49895"
       y="458.99146"
       id="tspan2">Universidad<tspan
   y="458.99146"
   id="tspan3"> </tspan></tspan><tspan
       x="237.49895"
       y="518.99147"
       id="tspan4">Tecnológica Mexicana</tspan></text>
</svg>
