<?xml version="1.0" encoding="UTF-8" standalone="no"?>
<svg
   width="512"
   height="512"
   version="1.1"
   id="svg4"
   sodipodi:docname="innovatia.svg"
   inkscape:version="1.3.2 (091e20e, 2023-11-25, custom)"
   xmlns:inkscape="http://www.inkscape.org/namespaces/inkscape"
   xmlns:sodipodi="http://sodipodi.sourceforge.net/DTD/sodipodi-0.dtd"
   xmlns="http://www.w3.org/2000/svg"
   xmlns:svg="http://www.w3.org/2000/svg">
  <defs
     id="defs4" />
  <sodipodi:namedview
     id="namedview4"
     pagecolor="#ffffff"
     bordercolor="#000000"
     borderopacity="0.25"
     inkscape:showpageshadow="2"
     inkscape:pageopacity="0.0"
     inkscape:pagecheckerboard="0"
     inkscape:deskcolor="#d1d1d1"
     inkscape:zoom="1.1338568"
     inkscape:cx="315.73653"
     inkscape:cy="297.65664"
     inkscape:window-width="1920"
     inkscape:window-height="1017"
     inkscape:window-x="-8"
     inkscape:window-y="-8"
     inkscape:window-maximized="1"
     inkscape:current-layer="svg4" />
  <g
     id="g4"
     transform="matrix(1.2270633,0,0,1.2270633,-58.059169,-92.057729)"
     style="fill:#9fa8da;fill-opacity:1">
    <path
       fill="#064789"
       d="m 265.309,136.645 -3.208,-0.344 c -68.616,-4.192 -117.329,60.025 -94.523,124.157 4.641,13.05 10.573,22.015 19.788,32.271 l -30.984,13.601 c -9.9,5.116 -14.924,5.996 -21.246,-3.778 l -4.229,-7.271 c -3.056,-5.807 -5.811,-12.41 -0.701,-18.194 1.763,-1.996 3.927,-3.328 5.305,-5.697 3.262,-5.613 1.309,-11.285 -0.151,-17.128 l -1.962,-9.219 c -0.728,-4.245 -0.427,-9.01 -1.624,-13.096 -1.994,-6.807 -13.282,-6.311 -18.512,-9.384 -6.59,-3.872 -6.049,-11.373 -5.693,-17.955 0.745,-13.755 1.535,-18.925 16.823,-19.5 14.987,-0.563 15.145,-1.411 20.709,-13.38 l 4.728,-9.13 c 5.271,-9.11 13.527,-15.249 7.476,-26.883 -2.009,-3.863 -4.506,-7.432 -6.967,-11.014 -8.472,-12.339 1.117,-15.977 10.603,-22.791 2.974,-2.1362 5.572,-4.9581 9.43,-5.2798 10.598,-0.8833 16.006,17.2898 28.088,16.1888 3.259,-0.297 6.481,-2.208 9.468,-3.484 l 14.069,-4.752 c 9.899,-2.462 11.677,-0.859 13.633,-13.3769 1.144,-7.3177 1.522,-15.3206 10.816,-16.1833 1.09,0.2742 2.771,0.0617 3.935,0.0659 l 10.817,0.0483 c 11.955,0.0777 13.396,4.3504 15.053,15.5628 1.486,10.0572 2.643,11.5752 11.926,13.7522 l 16.9,5.561 c 6.102,2.445 9.956,4.607 15.983,0.728 3.879,-2.497 7.294,-5.642 10.6,-8.841 8.454,-8.1816 11.514,-6.3938 21.162,0.613 l 6.142,4.49 c 7.696,5.797 7.157,11.036 1.705,18.878 l -5.054,7.82 c -5.123,8.628 -3.607,14.051 2.196,22.231 4.089,5.765 7.248,11.708 10.263,18.094 5.465,11.573 7.519,10.415 20.903,11.254 16.262,1.02 15.412,10.669 15.528,23.929 0.17,19.487 -11.172,11.756 -21.296,19.25 -4.779,3.539 -3.913,13.381 -4.91,18.718 -1.173,6.287 -4.548,13.676 -3.569,20.163 1.869,12.392 17.403,8.444 4.758,30.919 -4.979,8.849 -8.987,15.531 -19.585,10.442 l -20.623,-9.813 c -4.619,-2.125 -9.397,-4.614 -14.362,-5.766 2.576,-3.524 5.464,-6.757 7.916,-10.39 8.938,-13.246 14.695,-29.166 16.445,-45.023 4.269,-38.687 -18.646,-77.303 -53.968,-93.178 -9.554,-4.294 -19.631,-6.68 -30.001,-7.886 z"
       id="path2"
       style="fill:#9fa8da;fill-opacity:1" />
    <path
       fill="#064789"
       d="m 296.535,361.548 c 0.054,10.043 -7.431,14.05 -16.233,14.058 l -45.39,0.025 c -2.621,0.02 -5.388,0.219 -7.987,-0.088 -7.051,-0.834 -12.443,-8.516 -11.531,-15.389 l 0.05,-0.349 c 1.469,-10.893 10.548,-11.53 18.866,-11.522 l 13.168,0.057 0.188,-93.956 c -3.053,-1.239 -3.575,1.012 -5.093,3.07 -20.695,28.057 -57.691,-4.35 -38.027,-29.214 4.128,-5.22 9.929,-8.24 16.48,-8.996 10.103,-1.231 18.716,4.651 23.332,13.355 0.987,1.86 1.349,3.741 2.187,5.585 l 18.059,0.023 c 1.961,-0.005 1.446,-1.792 2.171,-3.426 12.242,-27.592 48.536,-14.747 46.327,11.072 -1.823,21.301 -28.038,29.776 -41.632,13.671 -3.371,-3.993 -2.34,-5.894 -7.19,-5.421 l -0.059,94.185 13.219,-0.01 c 2.793,10e-4 5.992,-0.306 8.72,0.323 5.897,1.361 9.995,7.068 10.375,12.947 z"
       id="path3"
       style="fill:#9fa8da;fill-opacity:1" />
    <path
       fill="#064789"
       d="m 274.631,423.968 c -12.659,17.77 -36.965,11.616 -40.395,-7.783 -0.362,-2.046 -0.349,-4.097 -0.325,-6.165 -4.983,0.044 -10.025,-0.026 -14.161,-3.205 -9.43,-7.251 -4.473,-21.612 7.599,-22.997 l 50.699,-0.006 c 2.481,-0.001 5.688,-0.356 8.1,0.238 l 0.286,0.074 c 9.185,2.234 13.762,12.561 7.851,20.191 -4.055,5.234 -9.99,5.037 -15.958,5.828 -10e-4,5.31 -0.863,9.299 -3.696,13.825 z"
       id="path4"
       style="fill:#9fa8da;fill-opacity:1" />
  </g>
  <text
     xml:space="preserve"
     style="font-size:58.3169px;font-family:Montserrat;-inkscape-font-specification:'Montserrat, @wght=700';font-variation-settings:'wght' 700;text-align:center;letter-spacing:0.613532px;word-spacing:0px;text-anchor:middle;fill:#9fa8da;fill-opacity:1;stroke-width:5.3549;stroke-linecap:round"
     x="255.84892"
     y="511.53348"
     id="text4"><tspan
       sodipodi:role="line"
       id="tspan4"
       x="256.1557"
       y="511.53348"
       style="stroke-width:5.3549">innovatia</tspan></text>
</svg>
